<svg width="120" height="31" viewBox="0 0 120 31" fill="none" xmlns="http://www.w3.org/2000/svg">
<path d="M18.5455 30.2955C28.7878 30.2955 37.0909 23.6713 37.0909 15.5C37.0909 7.32871 28.7878 0.704559 18.5455 0.704559C8.30308 0.704559 0 7.32871 0 15.5C0 23.6713 8.30308 30.2955 18.5455 30.2955Z" fill="white"/>
<path d="M34.5125 19.0408C34.5125 19.4314 34.843 19.7455 35.248 19.7455C35.6557 19.7455 35.9835 19.4288 35.9835 19.0408C35.9835 18.6502 35.6529 18.3361 35.248 18.3361C34.843 18.3361 34.5125 18.6528 34.5125 19.0408Z" fill="#FFBB00"/>
<path d="M35.2507 19.9329C34.7383 19.9329 34.3196 19.5317 34.3196 19.0408C34.3196 18.5498 34.7356 18.1487 35.2507 18.1487C35.7631 18.1487 36.1818 18.5498 36.1818 19.0408C36.1791 19.5343 35.7631 19.9329 35.2507 19.9329ZM35.2507 18.5208C34.9504 18.5208 34.708 18.7557 34.708 19.0408C34.708 19.3285 34.9504 19.5607 35.2507 19.5607C35.551 19.5607 35.7934 19.3285 35.7934 19.0408C35.7934 18.7557 35.5482 18.5208 35.2507 18.5208Z" fill="#76215D"/>
<path d="M33.4297 21.1338C33.0661 21.1338 32.7685 20.8488 32.7685 20.5004V13.4373C32.7685 13.0889 33.0661 12.8038 33.4297 12.8038H36.752C36.763 12.8038 36.7713 12.8038 36.7823 12.8065C34.9201 5.84367 27.4545 0.184753 18.6997 0.184753C9.77955 0.184753 2.18451 5.64044 0.506827 12.6851C0.484788 12.7748 0.559168 12.8566 0.655587 12.854C0.663852 12.854 0.672116 12.854 0.677626 12.854H4.06055C4.42969 12.854 4.73272 13.1364 4.73272 13.4795V20.4502C4.73272 20.7934 4.42969 21.0758 4.06055 21.0758H1.51234C1.45173 21.0758 1.4655 21.1576 1.49305 21.2104C4.17625 26.8482 10.7437 30.8152 18.4931 30.8152C26.4848 30.8152 33.5344 26.9089 36.1487 21.1338H33.4297ZM17.3773 15.0975C17.4958 15.3693 17.5564 15.657 17.5564 15.95C17.5564 16.4753 17.3608 16.982 17.0082 17.3859C16.9889 17.407 16.9834 17.436 16.9917 17.4624C17.0633 17.6815 17.1019 17.9058 17.1019 18.1355C17.1019 18.724 16.865 19.2757 16.4324 19.698C16.4132 19.7165 16.4049 19.7402 16.4104 19.764C16.4572 20.115 16.4159 20.4713 16.2892 20.8013L16.2176 20.9887C15.8925 21.8412 15.0688 22.4113 14.1184 22.443C14.1156 22.443 14.1101 22.443 14.1074 22.443C13.9862 22.4667 13.8512 22.4879 13.7162 22.5011C13.4187 22.5327 13.1129 22.5459 12.8071 22.5459C10.022 22.5459 6.98892 21.4057 6.37184 21.1629C6.32776 21.147 6.28369 21.1365 6.23685 21.1365H6.19829C5.7465 21.1365 5.38286 20.7854 5.38286 20.3552V13.5455C5.38286 13.1153 5.74925 12.7616 6.20104 12.7616C6.21757 12.7616 6.25614 12.7431 6.26991 12.7326C6.41867 12.6375 7.04677 12.202 7.84842 11.1463C8.69415 10.0298 9.26165 9.48871 9.3498 9.40689C9.35531 9.40161 9.35807 9.39633 9.36358 9.39106C9.42418 9.29604 9.79057 8.68369 9.89801 7.82852C9.97515 7.21881 10.2809 5.81464 11.4297 5.93869C12.3718 6.03899 12.7603 6.30293 12.774 6.31349C12.8071 6.33197 13.6473 6.82554 13.6473 8.31945C13.6473 9.94533 13.1542 10.8507 12.8815 11.2255C12.8429 11.2782 12.8815 11.3521 12.9504 11.3521H15.6088C16.8897 11.3521 17.9338 12.3525 17.9338 13.5825C17.9338 14.1077 17.741 14.6118 17.3884 15.0157C17.3718 15.0394 17.3663 15.0711 17.3773 15.0975ZM32.1735 20.5215C32.1735 20.9148 31.8402 21.2315 31.4324 21.2315H31.2369C30.8043 21.4057 27.5895 22.6594 24.6501 22.6594C24.3388 22.6594 24.0302 22.6462 23.7272 22.6146C23.5895 22.5987 23.4517 22.5776 23.325 22.5538C22.3608 22.5248 21.5234 21.9468 21.1928 21.0784L21.1212 20.8884C20.9889 20.54 20.9476 20.1652 21.0027 19.7983C20.5454 19.3681 20.2947 18.798 20.2947 18.1882C20.2947 17.9401 20.336 17.6973 20.4214 17.4624C20.044 17.0507 19.8347 16.5228 19.8347 15.9738C19.8347 15.657 19.9035 15.3509 20.0358 15.0632C19.6556 14.6488 19.4462 14.1209 19.4462 13.5719C19.4462 12.3261 20.5041 11.3099 21.8016 11.3099H24.6666C24.4407 11.046 23.7906 10.1169 23.7906 8.23763C23.7906 6.72524 24.6418 6.22375 24.6749 6.20527C24.6914 6.19472 25.0853 5.92549 26.0385 5.8252C27.2038 5.70114 27.5123 7.12379 27.5922 7.74142C27.7079 8.64146 28.1019 9.27492 28.1404 9.33299C28.1983 9.38578 28.7823 9.93478 29.6694 11.104C30.5289 12.2364 31.2176 12.6824 31.314 12.7405H31.4269C31.8347 12.7405 32.168 13.0599 32.168 13.4531V20.5215H32.1735Z" fill="#FFBB00"/>
<path d="M18.4904 31C14.7053 31 11.0744 30.0604 7.9918 28.284C4.97802 26.5473 2.66948 24.1269 1.31686 21.2843C1.29207 21.2315 1.24248 21.0969 1.31686 20.9887C1.36094 20.9253 1.43257 20.8884 1.51521 20.8884H4.06067C4.32513 20.8884 4.54 20.6904 4.54 20.4476V13.4795C4.54 13.2367 4.32513 13.0387 4.06067 13.0387H0.663972C0.559289 13.044 0.45736 12.9991 0.38849 12.92C0.322374 12.8434 0.297581 12.7405 0.319619 12.6428C1.14882 9.16143 3.44083 5.96509 6.77416 3.6424C10.1488 1.29332 14.383 0 18.6998 0C22.9036 0 27.0744 1.32763 30.4408 3.73742C33.7218 6.0865 36.0414 9.28812 36.967 12.759L37.0331 13.0018L36.7576 12.9912H33.4326C33.1736 12.9912 32.9642 13.1918 32.9642 13.4399V20.503C32.9642 20.7511 33.1736 20.9517 33.4326 20.9517H36.4436L36.3251 21.2104C33.6722 27.0646 26.5042 31 18.4904 31ZM1.73009 21.2579C4.5097 26.9564 11.0717 30.6278 18.4904 30.6278C26.2342 30.6278 33.1626 26.8983 35.8485 21.3186H33.4298C32.9587 21.3186 32.5758 20.9517 32.5758 20.5004V13.4373C32.5758 12.986 32.9587 12.6191 33.4298 12.6191H36.529C34.5235 5.61933 26.9091 0.369519 18.6998 0.369519C9.9973 0.369519 2.44083 5.53751 0.708049 12.6666H4.05791C4.53449 12.6666 4.92568 13.0308 4.92568 13.4769V20.445C4.92568 20.891 4.53725 21.2553 4.05791 21.2553H1.73009V21.2579ZM24.6502 22.8468C24.3224 22.8468 24.0056 22.831 23.708 22.802C23.5675 22.7861 23.4298 22.765 23.3058 22.7413C22.27 22.7017 21.3692 22.0788 21.0138 21.147L20.9422 20.957C20.81 20.6086 20.7631 20.2364 20.8045 19.8669C20.3527 19.4103 20.1075 18.8191 20.1075 18.1909C20.1075 17.9586 20.1433 17.729 20.2094 17.5073C19.8458 17.0718 19.6447 16.5333 19.6447 15.9764C19.6447 15.6729 19.7025 15.3799 19.8155 15.0975C19.4546 14.6646 19.259 14.1288 19.259 13.5745C19.259 12.2258 20.4023 11.1278 21.8072 11.1278H24.3031C24.0001 10.6474 23.6034 9.73154 23.6034 8.24027C23.6034 6.68037 24.4684 6.11554 24.5758 6.05483C24.6502 6.00468 25.0744 5.74602 26.0249 5.64572C26.9642 5.54542 27.6089 6.30294 27.7907 7.72295C27.8926 8.52005 28.2315 9.10864 28.3003 9.22214C28.4243 9.33827 28.9945 9.89519 29.8348 10.9985C30.5868 11.9909 31.2039 12.4396 31.3802 12.5584H31.4353C31.9505 12.5584 32.3692 12.9596 32.3692 13.4558V20.5241C32.3692 21.0177 31.9505 21.4215 31.4353 21.4215H31.2811C30.7659 21.6221 27.5648 22.8468 24.6502 22.8468ZM21.8045 11.4973C20.6116 11.4973 19.6419 12.429 19.6419 13.5719C19.6419 14.0734 19.8348 14.559 20.1819 14.9391L20.2645 15.0289L20.2149 15.1371C20.0937 15.401 20.0304 15.6834 20.0304 15.9738C20.0304 16.4753 20.2232 16.9609 20.5703 17.341L20.6447 17.4228L20.6089 17.5231C20.5317 17.7369 20.4932 17.9613 20.4932 18.1883C20.4932 18.7478 20.7246 19.2731 21.1433 19.6663L21.2122 19.7323L21.1984 19.8247C21.1461 20.1599 21.1846 20.5083 21.3058 20.825L21.3775 21.0151C21.6805 21.8095 22.4491 22.3401 23.3334 22.3665L23.3664 22.3691C23.4849 22.3928 23.6171 22.4113 23.7521 22.4272C24.0331 22.4562 24.3361 22.472 24.6502 22.472C27.5703 22.472 30.8045 21.2025 31.1626 21.0573L31.1984 21.0441H31.4326C31.7356 21.0441 31.9808 20.8092 31.9808 20.5189V13.4531C31.9808 13.1628 31.7356 12.9279 31.4326 12.9279H31.2618L31.2149 12.8989C31.0855 12.8197 30.3885 12.3604 29.518 11.2149C28.6392 10.0588 28.0717 9.52567 28.0111 9.47024L27.9946 9.45441L27.9808 9.43329C27.9339 9.36203 27.5262 8.70217 27.405 7.76782C27.3334 7.20562 27.0579 5.90702 26.0662 6.0126C25.1681 6.10762 24.799 6.35573 24.7962 6.35837L24.7797 6.36892C24.7494 6.3874 23.9918 6.8361 23.9918 8.24027C23.9918 10.0747 24.6282 10.9668 24.8237 11.1964L25.0799 11.5H21.8045V11.4973ZM12.8072 22.736C9.97802 22.736 6.88987 21.572 6.29758 21.3397C6.2783 21.3318 6.25626 21.3292 6.23422 21.3292H6.19841C5.64193 21.3292 5.19014 20.8963 5.19014 20.3631V13.5455C5.19014 13.0229 5.6254 12.5953 6.16535 12.5768C6.28381 12.5003 6.90364 12.0754 7.69152 11.0381C8.51797 9.95062 9.07719 9.40426 9.20392 9.28284C9.27003 9.17727 9.60336 8.59659 9.70529 7.80477C9.88436 6.4006 10.5207 5.65364 11.4518 5.7513C12.3857 5.8516 12.81 6.10762 12.8816 6.15513C12.9863 6.21584 13.8403 6.77275 13.8403 8.31418C13.8403 9.78169 13.4491 10.687 13.1516 11.1621H15.6116C17.0001 11.1621 18.1295 12.2469 18.1295 13.5798C18.1295 14.1262 17.9339 14.6567 17.5786 15.0843C17.6915 15.3614 17.7466 15.6518 17.7466 15.95C17.7466 16.499 17.5483 17.0322 17.1901 17.4598C17.2563 17.6788 17.2921 17.9058 17.2921 18.1328C17.2921 18.7531 17.0496 19.339 16.6034 19.7877C16.6419 20.1493 16.5951 20.5215 16.4656 20.862L16.394 21.0494C16.0441 21.9705 15.1571 22.5882 14.1323 22.6251C14.0083 22.6489 13.8733 22.67 13.7356 22.6858C13.4436 22.7201 13.1295 22.736 12.8072 22.736ZM11.2976 6.11554C10.4105 6.11554 10.1571 7.31647 10.0882 7.85228C9.97526 8.73648 9.60061 9.36994 9.52623 9.48872C9.51246 9.50983 9.49868 9.52567 9.48215 9.54151C9.42155 9.59957 8.8513 10.138 8.00281 11.2571C7.19565 12.3208 6.55378 12.7748 6.37472 12.8883C6.35268 12.9015 6.27554 12.949 6.19841 12.949C5.85405 12.949 5.57582 13.2156 5.57582 13.5455V20.3579C5.57582 20.6878 5.85405 20.9544 6.19841 20.9544H6.23422C6.30584 20.9544 6.37747 20.9676 6.44359 20.994C7.0221 21.2236 10.0496 22.3638 12.8045 22.3638C13.113 22.3638 13.4133 22.3506 13.6943 22.3216C13.8237 22.3084 13.9532 22.2873 14.0662 22.2662C14.0799 22.2635 14.091 22.2609 14.1047 22.2609C14.978 22.2318 15.7328 21.7092 16.0304 20.928L16.102 20.7406C16.2177 20.4397 16.2563 20.1097 16.2122 19.7904C16.2012 19.7086 16.2287 19.6294 16.2893 19.5713C16.686 19.186 16.9036 18.6765 16.9036 18.1381C16.9036 17.9296 16.8706 17.7211 16.8045 17.5205C16.7742 17.4334 16.7962 17.3384 16.8568 17.2697C17.1819 16.9002 17.3609 16.433 17.3609 15.9527C17.3609 15.6834 17.3058 15.4195 17.1984 15.1714C17.1571 15.079 17.1736 14.9761 17.2425 14.8995C17.5648 14.53 17.7439 14.0655 17.7439 13.5851C17.7439 12.4581 16.7879 11.5395 15.6116 11.5395H12.9532C12.8485 11.5395 12.7549 11.4841 12.7053 11.397C12.6585 11.3099 12.664 11.2043 12.7246 11.1225C12.9973 10.7451 13.4546 9.88199 13.4546 8.32209C13.4546 6.93904 12.708 6.49562 12.6777 6.47714L12.6612 6.46658C12.6585 6.46394 12.2921 6.21848 11.4078 6.1261C11.372 6.11818 11.3334 6.11554 11.2976 6.11554Z" fill="#76215D"/>
<path d="M1.53723 19.0408C1.53723 19.4314 1.86781 19.7455 2.27277 19.7455C2.67773 19.7455 3.01106 19.4288 3.01106 19.0408C3.01106 18.6502 2.68048 18.3361 2.27277 18.3361C1.86506 18.3361 1.53723 18.6528 1.53723 19.0408Z" fill="#FFBB00"/>
<path d="M2.27268 19.9329C1.76029 19.9329 1.34155 19.5317 1.34155 19.0408C1.34155 18.5498 1.75753 18.1487 2.27268 18.1487C2.78508 18.1487 3.20381 18.5498 3.20381 19.0408C3.20381 19.5343 2.78783 19.9329 2.27268 19.9329ZM2.27268 18.5208C1.97241 18.5208 1.72998 18.7557 1.72998 19.0408C1.72998 19.3285 1.97241 19.5607 2.27268 19.5607C2.57296 19.5607 2.81538 19.3285 2.81538 19.0408C2.81814 18.7557 2.57296 18.5208 2.27268 18.5208Z" fill="#76215D"/>
<path d="M54.7466 15.9606C54.7466 16.0187 54.7301 16.0714 54.697 16.1163C54.6639 16.1638 54.6033 16.2008 54.5152 16.2298C54.427 16.2588 54.3113 16.2826 54.1653 16.2984C54.0193 16.3143 53.8347 16.3248 53.6116 16.3248C53.394 16.3248 53.2122 16.3169 53.0689 16.2984C52.9256 16.28 52.8099 16.2588 52.7245 16.2298C52.6391 16.2008 52.5785 16.1638 52.5427 16.1163C52.5069 16.0688 52.4876 16.0187 52.4876 15.9606V6.81763H52.4684L49.0689 15.9527C49.0441 16.0292 49.0055 16.0899 48.9504 16.1401C48.8953 16.1902 48.821 16.2272 48.7273 16.2562C48.6336 16.2852 48.5152 16.3037 48.3692 16.3116C48.2232 16.3195 48.0496 16.3248 47.843 16.3248C47.6364 16.3248 47.4628 16.3169 47.3168 16.3037C47.1708 16.2879 47.0524 16.2668 46.9587 16.2351C46.865 16.2034 46.7907 16.1638 46.7356 16.119C46.6805 16.0714 46.6447 16.0187 46.6281 15.9527L43.3471 6.81763H43.3279V15.9606C43.3279 16.0187 43.3113 16.0714 43.2783 16.1163C43.2452 16.1638 43.1818 16.2008 43.0937 16.2298C43.0028 16.2588 42.8871 16.2826 42.7438 16.2984C42.6006 16.3169 42.4188 16.3248 42.1956 16.3248C41.978 16.3248 41.7962 16.3169 41.6529 16.2984C41.5097 16.28 41.3912 16.2588 41.3031 16.2298C41.2149 16.2008 41.1543 16.1638 41.1212 16.1163C41.0882 16.0688 41.0717 16.0187 41.0717 15.9606V5.94927C41.0717 5.65365 41.1543 5.4293 41.3168 5.27093C41.4794 5.11257 41.697 5.03603 41.9697 5.03603H43.529C43.8072 5.03603 44.0469 5.05714 44.2452 5.10201C44.4436 5.14424 44.6171 5.21815 44.7631 5.31844C44.9091 5.41874 45.0276 5.55335 45.1268 5.717C45.2232 5.88328 45.3086 6.08652 45.3802 6.32934L47.9174 13.0256H47.9532L50.5813 6.34782C50.6612 6.10499 50.7466 5.89912 50.8403 5.73019C50.9339 5.56127 51.0414 5.42666 51.1653 5.32108C51.2893 5.21551 51.4353 5.14424 51.6061 5.09937C51.7741 5.05714 51.9725 5.03339 52.1956 5.03339H53.7989C53.9615 5.03339 54.102 5.0545 54.2204 5.09409C54.3389 5.13368 54.4353 5.19439 54.5097 5.27093C54.5841 5.35012 54.6419 5.44514 54.6832 5.55863C54.7218 5.67213 54.7411 5.80146 54.7411 5.94399V15.9606H54.7466Z" fill="#404040"/>
<path d="M64.2535 15.3799C64.2535 15.5488 64.2452 15.6887 64.2314 15.8022C64.2149 15.9157 64.1929 16.0054 64.1626 16.0767C64.1322 16.148 64.0937 16.1981 64.0496 16.2298C64.0055 16.2615 63.9532 16.2773 63.9008 16.2773H58.0083C57.8099 16.2773 57.6419 16.2219 57.5042 16.1084C57.3692 15.9949 57.3003 15.8128 57.3003 15.5567V5.75657C57.3003 5.50055 57.3692 5.31843 57.5042 5.20493C57.6391 5.09144 57.8072 5.03601 58.0083 5.03601H63.8623C63.9174 5.03601 63.9642 5.05185 64.0083 5.07824C64.0496 5.10728 64.0854 5.15742 64.1185 5.23133C64.1488 5.30259 64.1708 5.39761 64.1873 5.50847C64.2011 5.62196 64.2094 5.76449 64.2094 5.93869C64.2094 6.0997 64.2011 6.23695 64.1873 6.35044C64.1708 6.46394 64.1488 6.55368 64.1185 6.62494C64.0882 6.69357 64.0524 6.74636 64.0083 6.77803C63.967 6.8097 63.9174 6.82554 63.8623 6.82554H59.6749V9.57054H63.2176C63.2727 9.57054 63.3223 9.58637 63.3664 9.61804C63.4105 9.64972 63.4491 9.69987 63.4794 9.76585C63.5097 9.83184 63.5317 9.92158 63.5482 10.0351C63.5648 10.1486 63.5703 10.2858 63.5703 10.4468C63.5703 10.6157 63.562 10.753 63.5482 10.8639C63.5345 10.9747 63.5097 11.0618 63.4794 11.1278C63.4491 11.1938 63.4105 11.2413 63.3664 11.2703C63.3223 11.2994 63.27 11.3126 63.2176 11.3126H59.6749V14.4825H63.8981C63.9532 14.4825 64.0028 14.4983 64.0469 14.53C64.0909 14.5617 64.1295 14.6118 64.1598 14.6831C64.1901 14.7544 64.2121 14.8441 64.2287 14.9576C64.2479 15.0711 64.2535 15.211 64.2535 15.3799Z" fill="#404040"/>
<path d="M75.0578 15.979C75.0578 16.0424 75.0468 16.0952 75.022 16.1401C74.9972 16.1823 74.9394 16.2192 74.8485 16.2483C74.7576 16.2773 74.6253 16.2984 74.449 16.309C74.2727 16.3195 74.0358 16.3275 73.7328 16.3275C73.4793 16.3275 73.2755 16.3222 73.1267 16.309C72.9752 16.2984 72.8567 16.2747 72.7686 16.243C72.6804 16.2113 72.6198 16.1717 72.584 16.1216C72.5482 16.0714 72.5179 16.0134 72.4931 15.9447L71.4407 13.4346C71.314 13.1522 71.1901 12.8988 71.0688 12.6798C70.9476 12.4607 70.8126 12.2759 70.6666 12.1281C70.5179 11.9803 70.3471 11.8695 70.1542 11.7929C69.9614 11.719 69.7383 11.6794 69.4848 11.6794H68.741V15.9606C68.741 16.0186 68.7217 16.0714 68.6832 16.1163C68.6446 16.1638 68.5785 16.2008 68.4876 16.2298C68.3967 16.2588 68.2755 16.2826 68.1239 16.2984C67.9724 16.3169 67.7796 16.3248 67.5427 16.3248C67.314 16.3248 67.1212 16.3169 66.9669 16.2984C66.8126 16.2799 66.6914 16.2588 66.6005 16.2298C66.5096 16.2008 66.4463 16.1638 66.4104 16.1163C66.3746 16.0688 66.3553 16.0186 66.3553 15.9606V5.75657C66.3553 5.50055 66.4242 5.31843 66.5592 5.20493C66.6942 5.09144 66.8622 5.03601 67.0633 5.03601H70.0992C70.4077 5.03601 70.6611 5.04129 70.8595 5.05449C71.0578 5.06504 71.2396 5.08088 71.4022 5.09672C71.8733 5.16006 72.2975 5.27092 72.6749 5.42664C73.0523 5.58237 73.3719 5.78825 73.6363 6.03899C73.9008 6.28974 74.0991 6.58799 74.2396 6.93375C74.3774 7.27952 74.449 7.67279 74.449 8.11885C74.449 8.49629 74.3994 8.83942 74.3002 9.14823C74.2011 9.45704 74.0551 9.73418 73.8595 9.97701C73.6666 10.2198 73.427 10.431 73.1432 10.6105C72.8595 10.7899 72.5372 10.9351 72.1735 11.046C72.3498 11.1278 72.5124 11.2255 72.6666 11.3416C72.8209 11.4577 72.9669 11.5976 73.1019 11.7639C73.2369 11.9302 73.3664 12.1176 73.4876 12.3287C73.6088 12.5399 73.7273 12.7801 73.8402 13.044L74.8292 15.2585C74.9201 15.4776 74.9807 15.6386 75.011 15.7415C75.0441 15.8418 75.0578 15.921 75.0578 15.979ZM71.9862 8.35376C71.9862 7.98424 71.898 7.67015 71.7245 7.41677C71.5482 7.16338 71.2617 6.98126 70.8622 6.87833C70.741 6.84929 70.6033 6.82554 70.449 6.8097C70.2947 6.79123 70.0826 6.78331 69.8099 6.78331H68.741V9.96909H69.9559C70.2947 9.96909 70.5895 9.9295 70.843 9.85295C71.0964 9.77377 71.3085 9.66556 71.4766 9.52303C71.6446 9.3805 71.7713 9.21157 71.8567 9.01626C71.9421 8.8183 71.9862 8.59659 71.9862 8.35376Z" fill="#404040"/>
<path d="M84.7907 14.5722C84.7907 14.7174 84.7851 14.8415 84.7769 14.9418C84.7686 15.0421 84.7548 15.1292 84.7356 15.2031C84.7163 15.2743 84.6942 15.3377 84.6639 15.3905C84.6336 15.4433 84.584 15.5013 84.5179 15.5673C84.4518 15.6333 84.3223 15.7204 84.1323 15.8233C83.9422 15.9289 83.708 16.0266 83.4353 16.1242C83.1598 16.2192 82.8458 16.2984 82.4931 16.3618C82.1405 16.4251 81.7576 16.4568 81.3471 16.4568C80.5427 16.4568 79.8182 16.338 79.1708 16.1005C78.5234 15.8629 77.9752 15.5092 77.5207 15.0368C77.0661 14.5643 76.719 13.9757 76.4794 13.2684C76.2369 12.561 76.1157 11.7401 76.1157 10.8032C76.1157 9.84768 76.248 9.00043 76.5152 8.25875C76.7796 7.51707 77.1515 6.89417 77.6309 6.39268C78.1075 5.88855 78.6805 5.50583 79.3471 5.24717C80.0138 4.98587 80.7493 4.85654 81.5537 4.85654C81.8788 4.85654 82.1929 4.88293 82.4959 4.93572C82.7989 4.98851 83.0772 5.05713 83.3334 5.13895C83.5896 5.22342 83.821 5.32107 84.0276 5.42929C84.2342 5.54015 84.3774 5.63253 84.4573 5.71171C84.54 5.79089 84.5951 5.85424 84.6254 5.90703C84.6557 5.95981 84.6805 6.0258 84.697 6.10762C84.7135 6.18944 84.7301 6.28446 84.7383 6.39532C84.7466 6.50617 84.7521 6.64079 84.7521 6.80443C84.7521 6.97863 84.7466 7.12644 84.7328 7.24785C84.7218 7.36927 84.6997 7.46692 84.6694 7.54347C84.6391 7.62001 84.6033 7.6728 84.5593 7.70975C84.5179 7.74406 84.4683 7.76254 84.4132 7.76254C84.3223 7.76254 84.2066 7.71239 84.0689 7.60945C83.9312 7.50916 83.7493 7.39566 83.5289 7.27161C83.3086 7.14755 83.0441 7.03406 82.7411 6.93376C82.4353 6.83346 82.0717 6.78067 81.6502 6.78067C81.1846 6.78067 80.7686 6.87305 80.405 7.05517C80.0386 7.23729 79.7273 7.4986 79.4711 7.83644C79.2149 8.17429 79.0193 8.5834 78.8871 9.06641C78.7548 9.54679 78.6887 10.0879 78.6887 10.6897C78.6887 11.3495 78.7604 11.9223 78.9009 12.4053C79.0441 12.8883 79.2452 13.2868 79.5069 13.5983C79.7686 13.9098 80.0882 14.1447 80.4573 14.2977C80.8292 14.4508 81.248 14.5274 81.7135 14.5274C82.1378 14.5274 82.5014 14.4799 82.8099 14.3848C83.1185 14.2898 83.3829 14.1843 83.6033 14.0681C83.8237 13.952 84.0055 13.849 84.146 13.7567C84.2893 13.6643 84.3995 13.6168 84.4766 13.6168C84.5372 13.6168 84.5868 13.6273 84.6226 13.6511C84.6584 13.6748 84.6887 13.7197 84.7135 13.791C84.7383 13.8596 84.7548 13.9573 84.7686 14.0813C84.7824 14.1974 84.7907 14.3637 84.7907 14.5722Z" fill="#404040"/>
<path d="M96.1102 15.4221C96.1818 15.6307 96.2286 15.7943 96.2452 15.9184C96.2644 16.0398 96.2396 16.1321 96.1735 16.1929C96.1074 16.2536 95.989 16.2905 95.8209 16.3063C95.6529 16.3195 95.4187 16.3275 95.1239 16.3275C94.8154 16.3275 94.5757 16.3222 94.4022 16.3143C94.2286 16.3063 94.0991 16.2879 94.0082 16.2615C93.9173 16.2351 93.854 16.1981 93.8182 16.1533C93.7823 16.1058 93.752 16.045 93.7273 15.9711L92.9394 13.7144H88.5344L87.7906 15.9104C87.7658 15.9923 87.7355 16.0582 87.6942 16.1137C87.6556 16.1691 87.5923 16.2113 87.5041 16.243C87.416 16.2747 87.292 16.2958 87.1322 16.309C86.9724 16.3195 86.7631 16.3275 86.5014 16.3275C86.2231 16.3275 86.0055 16.3195 85.8485 16.3011C85.6914 16.2826 85.5812 16.243 85.5234 16.1744C85.4628 16.1084 85.4407 16.0134 85.46 15.892C85.4793 15.7705 85.5234 15.6095 85.595 15.4063L89.2121 5.43721C89.2479 5.33955 89.292 5.26037 89.3388 5.19966C89.3884 5.13896 89.4628 5.09145 89.5702 5.05977C89.6749 5.0281 89.8237 5.00699 90.011 4.99907C90.1983 4.99115 90.4463 4.98587 90.7548 4.98587C91.1102 4.98587 91.3939 4.99115 91.606 4.99907C91.8182 5.00699 91.9834 5.0281 92.0992 5.05977C92.2176 5.09145 92.3002 5.13896 92.3526 5.2023C92.4049 5.26565 92.449 5.35275 92.4848 5.46361L96.1102 15.4221ZM90.7245 7.18187H90.7162L89.0578 11.9592H92.3829L90.7245 7.18187Z" fill="#404040"/>
<path d="M107.493 10.4891C107.493 11.5184 107.353 12.4 107.072 13.1338C106.791 13.8649 106.389 14.464 105.862 14.9259C105.336 15.3878 104.697 15.7283 103.945 15.9474C103.193 16.1638 102.298 16.272 101.259 16.272H98.4574C98.259 16.272 98.091 16.2166 97.9533 16.1031C97.8183 15.9896 97.7494 15.8075 97.7494 15.5515V5.75657C97.7494 5.50055 97.8183 5.31843 97.9533 5.20493C98.0882 5.09144 98.2563 5.03601 98.4574 5.03601H101.466C102.51 5.03601 103.397 5.15215 104.127 5.38705C104.854 5.62196 105.468 5.96773 105.967 6.42963C106.466 6.88888 106.846 7.459 107.105 8.13469C107.364 8.81302 107.493 9.59957 107.493 10.4891ZM105.028 10.5682C105.028 10.0351 104.962 9.5415 104.832 9.08224C104.703 8.62562 104.493 8.22971 104.207 7.89186C103.92 7.55666 103.551 7.29536 103.102 7.10532C102.653 6.91792 102.061 6.8229 101.331 6.8229H100.124V14.464H101.366C102.019 14.464 102.568 14.3822 103.017 14.2212C103.463 14.0602 103.838 13.8147 104.135 13.4874C104.433 13.1601 104.658 12.7537 104.804 12.268C104.953 11.785 105.028 11.2175 105.028 10.5682Z" fill="#404040"/>
<path d="M120 10.526C120 11.4577 119.879 12.2918 119.636 13.0282C119.394 13.7646 119.036 14.3875 118.557 14.8995C118.08 15.4116 117.488 15.8022 116.785 16.0714C116.08 16.3407 115.267 16.4753 114.342 16.4753C113.43 16.4753 112.634 16.3618 111.953 16.1321C111.273 15.9025 110.708 15.5541 110.254 15.0869C109.799 14.6171 109.46 14.0206 109.234 13.2974C109.008 12.5742 108.895 11.7164 108.895 10.7266C108.895 9.81865 109.017 9.00043 109.259 8.27459C109.501 7.54874 109.86 6.93112 110.339 6.42171C110.815 5.9123 111.408 5.52167 112.11 5.24981C112.813 4.97795 113.631 4.8407 114.562 4.8407C115.449 4.8407 116.234 4.95419 116.915 5.17854C117.595 5.40553 118.163 5.7513 118.62 6.22112C119.077 6.69093 119.422 7.28216 119.653 7.99745C119.884 8.70745 120 9.55206 120 10.526ZM117.499 10.6474C117.499 10.0562 117.449 9.52039 117.353 9.03738C117.256 8.55436 117.091 8.13997 116.86 7.79421C116.628 7.45109 116.317 7.1845 115.931 6.99447C115.546 6.80707 115.061 6.71205 114.482 6.71205C113.895 6.71205 113.408 6.81762 113.014 7.02878C112.62 7.23993 112.303 7.52235 112.063 7.87603C111.821 8.22971 111.65 8.64146 111.551 9.11392C111.452 9.58638 111.402 10.0852 111.402 10.6131C111.402 11.2281 111.452 11.7771 111.548 12.268C111.645 12.7563 111.807 13.176 112.039 13.5218C112.267 13.8702 112.576 14.1341 112.964 14.3162C113.35 14.4983 113.838 14.5907 114.424 14.5907C115.011 14.5907 115.499 14.4878 115.893 14.2793C116.287 14.0708 116.603 13.7883 116.843 13.4294C117.085 13.0704 117.256 12.6534 117.355 12.1756C117.449 11.6926 117.499 11.1859 117.499 10.6474Z" fill="#404040"/>
<path d="M75.7548 27.5085C75.7548 27.5587 75.741 27.6035 75.7107 27.6458C75.6832 27.6854 75.6281 27.7197 75.5537 27.7434C75.4766 27.7698 75.3774 27.7883 75.2507 27.8041C75.1239 27.82 74.9642 27.8279 74.7686 27.8279C74.5785 27.8279 74.4215 27.82 74.2947 27.8041C74.168 27.7883 74.0688 27.7698 73.9945 27.7434C73.9201 27.717 73.8677 27.6854 73.8374 27.6458C73.8071 27.6062 73.7906 27.5613 73.7906 27.5085V19.5559H73.7741L70.8182 27.5006C70.7961 27.5666 70.7631 27.6194 70.7162 27.6642C70.6694 27.7065 70.6033 27.7408 70.5234 27.7672C70.4407 27.7936 70.3388 27.8094 70.2121 27.8173C70.0854 27.8253 69.9339 27.8279 69.7548 27.8279C69.5757 27.8279 69.4242 27.8226 69.2975 27.8094C69.1708 27.7962 69.0688 27.7777 68.9862 27.7487C68.9036 27.7223 68.8402 27.688 68.7934 27.6458C68.7465 27.6062 68.7135 27.5587 68.6997 27.5032L65.8457 19.5586H65.8292V27.5112C65.8292 27.5613 65.8154 27.6062 65.7851 27.6484C65.7576 27.688 65.7025 27.7223 65.6226 27.7461C65.5427 27.7725 65.4435 27.7909 65.3195 27.8068C65.1956 27.8226 65.0358 27.8305 64.843 27.8305C64.6529 27.8305 64.4958 27.8226 64.3691 27.8068C64.2424 27.7909 64.1405 27.7725 64.0661 27.7461C63.989 27.7197 63.9366 27.688 63.9091 27.6484C63.8815 27.6088 63.865 27.5639 63.865 27.5112V18.8011C63.865 18.545 63.9366 18.3471 64.0771 18.2125C64.2176 18.0779 64.4077 18.0092 64.6446 18.0092H66C66.2424 18.0092 66.449 18.0277 66.6226 18.0647C66.7961 18.1016 66.9449 18.165 67.0716 18.2547C67.1983 18.3418 67.303 18.4579 67.3884 18.6031C67.471 18.7456 67.5454 18.9251 67.6088 19.1363L69.8154 24.9588H69.8457L72.1322 19.1495C72.2011 18.9383 72.2755 18.7588 72.3581 18.6137C72.4407 18.4685 72.5344 18.3497 72.6418 18.26C72.7493 18.1703 72.876 18.1043 73.0248 18.0673C73.1708 18.0304 73.3416 18.0119 73.5372 18.0119H74.9311C75.0744 18.0119 75.1956 18.0304 75.2975 18.0647C75.3994 18.099 75.4848 18.1518 75.5509 18.2204C75.6171 18.289 75.6666 18.3708 75.6997 18.4685C75.7328 18.5662 75.752 18.6797 75.752 18.8037V27.5085H75.7548Z" fill="#404040"/>
<path d="M84.022 27.0013C84.022 27.1464 84.0165 27.2705 84.0027 27.3681C83.9889 27.4658 83.9696 27.545 83.9448 27.6057C83.9173 27.6664 83.887 27.7113 83.8457 27.7376C83.8043 27.764 83.763 27.7799 83.7162 27.7799H78.5922C78.4187 27.7799 78.2727 27.7297 78.1542 27.6321C78.0358 27.5344 77.9779 27.3734 77.9779 27.1517V18.6343C77.9779 18.4126 78.0358 18.2542 78.1542 18.1539C78.2727 18.0536 78.4187 18.0061 78.5922 18.0061H83.6859C83.7327 18.0061 83.774 18.0193 83.8126 18.0431C83.8484 18.0694 83.8815 18.1117 83.9063 18.175C83.9338 18.2384 83.9531 18.3176 83.9641 18.4179C83.9779 18.5155 83.9834 18.6396 83.9834 18.7926C83.9834 18.9325 83.9779 19.054 83.9641 19.1516C83.9504 19.2493 83.9311 19.3285 83.9063 19.3892C83.8787 19.4499 83.8484 19.4947 83.8126 19.5211C83.7768 19.5475 83.7327 19.5634 83.6859 19.5634H80.044V21.9494H83.1267C83.1735 21.9494 83.2176 21.9626 83.2561 21.9916C83.2947 22.018 83.3278 22.0629 83.3553 22.121C83.3829 22.179 83.4022 22.2582 83.4132 22.3559C83.4269 22.4535 83.4324 22.5749 83.4324 22.7148C83.4324 22.86 83.4269 22.9814 83.4132 23.0764C83.3994 23.1715 83.3801 23.248 83.3553 23.3061C83.3278 23.3641 83.2975 23.4064 83.2561 23.4301C83.2148 23.4539 83.1735 23.4671 83.1267 23.4671H80.044V26.2226H83.719C83.7658 26.2226 83.8099 26.2358 83.8484 26.2649C83.887 26.2939 83.9201 26.3361 83.9476 26.3968C83.9752 26.4575 83.9944 26.5367 84.0055 26.6344C84.0165 26.7347 84.022 26.8561 84.022 27.0013Z" fill="#404040"/>
<path d="M91.8981 27.0013C91.8981 27.1464 91.8926 27.2705 91.8788 27.3681C91.865 27.4658 91.8457 27.545 91.8209 27.6057C91.7934 27.6664 91.7631 27.7113 91.7218 27.7376C91.6805 27.764 91.6391 27.7799 91.5923 27.7799H86.4683C86.2948 27.7799 86.1488 27.7297 86.0303 27.6321C85.9119 27.5344 85.854 27.3734 85.854 27.1517V18.6343C85.854 18.4126 85.9119 18.2542 86.0303 18.1539C86.1488 18.0536 86.2948 18.0061 86.4683 18.0061H91.562C91.6088 18.0061 91.6501 18.0193 91.6887 18.0431C91.7245 18.0694 91.7576 18.1117 91.7824 18.175C91.8099 18.2384 91.8292 18.3176 91.8402 18.4179C91.854 18.5155 91.8595 18.6396 91.8595 18.7926C91.8595 18.9325 91.854 19.054 91.8402 19.1516C91.8265 19.2493 91.8072 19.3285 91.7824 19.3892C91.7548 19.4499 91.7245 19.4947 91.6887 19.5211C91.6529 19.5475 91.6088 19.5634 91.562 19.5634H87.9201V21.9494H91.0028C91.0496 21.9494 91.0937 21.9626 91.1322 21.9916C91.1708 22.018 91.2039 22.0629 91.2314 22.121C91.259 22.179 91.2782 22.2582 91.2893 22.3559C91.303 22.4535 91.3086 22.5749 91.3086 22.7148C91.3086 22.86 91.303 22.9814 91.2893 23.0764C91.2755 23.1715 91.2562 23.248 91.2314 23.3061C91.2039 23.3641 91.1736 23.4064 91.1322 23.4301C91.0909 23.4539 91.0496 23.4671 91.0028 23.4671H87.9201V26.2226H91.5951C91.6419 26.2226 91.686 26.2358 91.7245 26.2649C91.7631 26.2939 91.7962 26.3361 91.8237 26.3968C91.8513 26.4575 91.8705 26.5367 91.8816 26.6344C91.8926 26.7347 91.8981 26.8561 91.8981 27.0013Z" fill="#404040"/>
<path d="M100.515 18.8217C100.515 18.9669 100.51 19.0936 100.496 19.1965C100.482 19.2994 100.463 19.3839 100.438 19.4446C100.41 19.5079 100.38 19.5528 100.339 19.5845C100.3 19.6135 100.256 19.6294 100.209 19.6294H97.6557V27.508C97.6557 27.5582 97.6391 27.6031 97.6033 27.6453C97.5703 27.6849 97.5124 27.7192 97.4325 27.7429C97.3526 27.7693 97.248 27.7878 97.113 27.8036C96.978 27.8195 96.8127 27.8274 96.6116 27.8274C96.4105 27.8274 96.2452 27.8195 96.1102 27.8036C95.9752 27.7878 95.8705 27.7693 95.7907 27.7429C95.7108 27.7165 95.6557 27.6849 95.6199 27.6453C95.5868 27.6057 95.5675 27.5608 95.5675 27.508V19.6294H93.0138C92.9615 19.6294 92.9174 19.6135 92.8788 19.5845C92.843 19.5555 92.8099 19.5079 92.7851 19.4446C92.7576 19.3813 92.7383 19.2994 92.7273 19.1965C92.7135 19.0936 92.708 18.9695 92.708 18.8217C92.708 18.6713 92.7135 18.5419 92.7273 18.4363C92.7411 18.3308 92.7603 18.2463 92.7851 18.183C92.8127 18.1196 92.843 18.0747 92.8788 18.0457C92.9146 18.0193 92.9615 18.0035 93.0138 18.0035H100.204C100.251 18.0035 100.295 18.0167 100.333 18.0457C100.372 18.0721 100.405 18.1196 100.433 18.183C100.46 18.2463 100.479 18.3308 100.49 18.4363C100.51 18.5419 100.515 18.6713 100.515 18.8217Z" fill="#404040"/>
</svg>
