<svg width="104" height="86" viewBox="0 0 104 86" fill="none" xmlns="http://www.w3.org/2000/svg">
<path d="M51.5428 84.0455C80.0091 84.0455 103.086 65.6688 103.086 43C103.086 20.3312 80.0091 1.95456 51.5428 1.95456C23.0765 1.95456 0 20.3312 0 43C0 65.6688 23.0765 84.0455 51.5428 84.0455Z" fill="white"/>
<path d="M95.9193 52.8228C95.9193 53.9065 96.838 54.7779 97.9635 54.7779C99.0966 54.7779 100.008 53.8992 100.008 52.8228C100.008 51.7391 99.089 50.8678 97.9635 50.8678C96.838 50.8678 95.9193 51.7464 95.9193 52.8228Z" fill="#FFBB00"/>
<path d="M97.971 55.2977C96.5469 55.2977 95.3832 54.1848 95.3832 52.8228C95.3832 51.4609 96.5393 50.3479 97.971 50.3479C99.3951 50.3479 100.559 51.4609 100.559 52.8228C100.551 54.1921 99.3951 55.2977 97.971 55.2977ZM97.971 51.3803C97.1365 51.3803 96.4627 52.032 96.4627 52.8228C96.4627 53.621 97.1365 54.2653 97.971 54.2653C98.8056 54.2653 99.4793 53.621 99.4793 52.8228C99.4793 52.032 98.7979 51.3803 97.971 51.3803Z" fill="#76215D"/>
<path d="M92.9102 58.6294C91.8996 58.6294 91.0727 57.8386 91.0727 56.872V37.2776C91.0727 36.3111 91.8996 35.5203 92.9102 35.5203H102.144C102.174 35.5203 102.197 35.5203 102.228 35.5276C97.0523 16.2115 76.3035 0.512543 51.9715 0.512543C27.1801 0.512543 6.07146 15.6477 1.40872 35.1908C1.34747 35.4398 1.55419 35.6667 1.82216 35.6594C1.84513 35.6594 1.8681 35.6594 1.88342 35.6594H11.2855C12.3114 35.6594 13.1536 36.4429 13.1536 37.3948V56.7329C13.1536 57.6848 12.3114 58.4683 11.2855 58.4683H4.2033C4.03486 58.4683 4.07314 58.6953 4.14971 58.8417C11.607 74.4821 29.8599 85.4874 51.3973 85.4874C73.6084 85.4874 93.2011 74.6505 100.467 58.6294H92.9102ZM48.2964 41.8833C48.6257 42.6375 48.7941 43.4357 48.7941 44.2484C48.7941 45.7056 48.2505 47.1114 47.2705 48.2318C47.2169 48.2903 47.2016 48.3709 47.2245 48.4441C47.4236 49.0518 47.5308 49.6742 47.5308 50.3113C47.5308 51.9441 46.8723 53.4745 45.6703 54.6461C45.6167 54.6973 45.5937 54.7632 45.609 54.8291C45.7392 55.803 45.6244 56.7915 45.2722 57.7068L45.0731 58.2266C44.1696 60.5917 41.8804 62.1733 39.2389 62.2612C39.2313 62.2612 39.216 62.2612 39.2083 62.2612C38.8714 62.3271 38.4963 62.3857 38.1211 62.4223C37.2942 62.5102 36.4443 62.5468 35.5945 62.5468C27.8539 62.5468 19.4242 59.3836 17.7092 58.7099C17.5867 58.666 17.4642 58.6367 17.334 58.6367H17.2268C15.9712 58.6367 14.9605 57.6628 14.9605 56.4693V37.5779C14.9605 36.3843 15.9788 35.4031 17.2345 35.4031C17.2804 35.4031 17.3876 35.3519 17.4259 35.3226C17.8393 35.059 19.585 33.8508 21.813 30.9219C24.1635 27.8246 25.7407 26.3235 25.9857 26.0965C26.001 26.0819 26.0087 26.0672 26.024 26.0526C26.1924 25.789 27.2107 24.0902 27.5093 21.7178C27.7237 20.0264 28.5736 16.1309 31.7663 16.4751C34.3848 16.7533 35.4643 17.4856 35.5026 17.5148C35.5945 17.5661 37.9297 18.9354 37.9297 23.0798C37.9297 27.5903 36.5592 30.1018 35.8012 31.1416C35.694 31.288 35.8012 31.493 35.9926 31.493H43.381C46.9412 31.493 49.843 34.2682 49.843 37.6804C49.843 39.1375 49.3071 40.536 48.3271 41.6564C48.2811 41.7223 48.2658 41.8101 48.2964 41.8833ZM89.4189 56.9306C89.4189 58.0216 88.4925 58.9003 87.3593 58.9003H86.8157C85.6137 59.3836 76.6787 62.8616 68.5093 62.8616C67.6441 62.8616 66.7866 62.825 65.9444 62.7372C65.5616 62.6932 65.1788 62.6346 64.8266 62.5687C62.1468 62.4882 59.8193 60.8846 58.9005 58.4756L58.7015 57.9484C58.334 56.9819 58.2191 55.9421 58.3722 54.9243C57.1013 53.7308 56.4045 52.1492 56.4045 50.4577C56.4045 49.7694 56.5194 49.0958 56.7567 48.4441C55.7078 47.3018 55.1259 45.8374 55.1259 44.3143C55.1259 43.4357 55.3173 42.5863 55.6848 41.7882C54.6283 40.6386 54.0464 39.1741 54.0464 37.6511C54.0464 34.195 56.9864 31.3759 60.5926 31.3759H68.5552C67.9274 30.6437 66.1205 28.0662 66.1205 22.8528C66.1205 18.6571 68.4863 17.2659 68.5782 17.2146C68.6241 17.1853 69.719 16.4385 72.3681 16.1602C75.6068 15.8161 76.4643 19.7628 76.6863 21.4762C77.0079 23.9731 78.1027 25.7304 78.2099 25.8915C78.3707 26.038 79.9939 27.561 82.4592 30.8048C84.848 33.946 86.7621 35.1835 87.0301 35.3446H87.344C88.4771 35.3446 89.4036 36.2306 89.4036 37.3216V56.9306H89.4189Z" fill="#FFBB00"/>
<path d="M51.3899 86C40.87 86 30.7789 83.3933 22.2114 78.4654C13.8353 73.6473 7.4193 66.9328 3.66001 59.0467C3.5911 58.9003 3.45329 58.5269 3.66001 58.2266C3.78251 58.0509 3.98158 57.9484 4.21127 57.9484H11.2858C12.0208 57.9484 12.618 57.3992 12.618 56.7256V37.3948C12.618 36.7212 12.0208 36.172 11.2858 36.172H1.84545C1.5545 36.1866 1.27122 36.0622 1.07981 35.8425C0.896055 35.6301 0.827148 35.3446 0.888399 35.0737C3.19297 25.4156 9.56308 16.5483 18.8273 10.1047C28.2064 3.58791 39.9742 0 51.9718 0C63.6554 0 75.2472 3.6831 84.6033 10.3683C93.7221 16.8851 100.169 25.767 102.741 35.3958L102.925 36.0695L102.159 36.0402H92.9182C92.1985 36.0402 91.6166 36.5967 91.6166 37.285V56.8794C91.6166 57.5676 92.1985 58.1241 92.9182 58.1241H101.287L100.957 58.8417C93.5843 75.0825 73.6623 86 51.3899 86ZM4.80847 58.9735C12.5338 74.7823 30.7713 84.9676 51.3899 84.9676C72.912 84.9676 92.1678 74.6212 99.6328 59.1419H92.9105C91.6012 59.1419 90.537 58.1241 90.537 56.872V37.2777C90.537 36.0255 91.6012 35.0078 92.9105 35.0078H101.524C95.9501 15.5891 74.7878 1.02512 51.9718 1.02512C27.7853 1.02512 6.78382 15.3621 1.96795 35.1395H11.2781C12.6027 35.1395 13.6899 36.15 13.6899 37.3875V56.7183C13.6899 57.9557 12.6103 58.9662 11.2781 58.9662H4.80847V58.9735ZM68.5096 63.3815C67.5985 63.3815 66.718 63.3376 65.8911 63.257C65.5006 63.2131 65.1178 63.1545 64.7733 63.0886C61.8945 62.9788 59.3908 61.2507 58.4032 58.666L58.2041 58.1388C57.8366 57.1722 57.7064 56.1398 57.8213 55.1147C56.5656 53.8479 55.8842 52.2077 55.8842 50.465C55.8842 49.8207 55.9837 49.1837 56.1675 48.5686C55.1569 47.3604 54.5979 45.8667 54.5979 44.3217C54.5979 43.4796 54.7587 42.6668 55.0726 41.8834C54.0697 40.6825 53.5261 39.1961 53.5261 37.6584C53.5261 33.9167 56.7035 30.8707 60.6082 30.8707H67.5449C66.7027 29.538 65.6002 26.9972 65.6002 22.8601C65.6002 18.5327 68.0043 16.9657 68.3029 16.7973C68.5096 16.6582 69.6887 15.9406 72.3301 15.6623C74.941 15.3841 76.7325 17.4856 77.2379 21.4249C77.5212 23.6363 78.4629 25.2691 78.6543 25.584C78.9988 25.9062 80.5837 27.4512 82.9189 30.5119C85.0091 33.265 86.7241 34.5098 87.2141 34.8393H87.3673C88.799 34.8393 89.9628 35.9523 89.9628 37.3289V56.9379C89.9628 58.3072 88.799 59.4275 87.3673 59.4275H86.9385C85.5068 59.984 76.6101 63.3815 68.5096 63.3815ZM60.6005 31.8958C57.2853 31.8958 54.5903 34.4805 54.5903 37.6511C54.5903 39.0423 55.1262 40.3896 56.0909 41.444L56.3206 41.693L56.1828 41.9932C55.8459 42.7254 55.6698 43.5089 55.6698 44.3144C55.6698 45.7056 56.2058 47.0529 57.1705 48.1073L57.3772 48.3343L57.2777 48.6125C57.0633 49.2056 56.9561 49.828 56.9561 50.4577C56.9561 52.0101 57.5992 53.4672 58.763 54.5582L58.9544 54.7413L58.9161 54.9975C58.7707 55.9275 58.8779 56.894 59.2147 57.7727L59.4138 58.2999C60.256 60.5039 62.3921 61.9756 64.8498 62.0489L64.9417 62.0562C65.2709 62.1221 65.6385 62.1734 66.0136 62.2173C66.7946 62.2978 67.6368 62.3418 68.5096 62.3418C76.6254 62.3418 85.614 58.8198 86.6093 58.417L86.7088 58.3804H87.3596C88.2018 58.3804 88.8832 57.7287 88.8832 56.9233V37.3216C88.8832 36.5161 88.2018 35.8645 87.3596 35.8645H86.8849L86.7548 35.7839C86.3949 35.5642 84.4578 34.2902 82.0384 31.1123C79.596 27.9052 78.0188 26.4261 77.8504 26.2723L77.8045 26.2284L77.7662 26.1698C77.636 25.9721 76.5029 24.1415 76.166 21.5494C75.9669 19.9898 75.2013 16.3872 72.445 16.6801C69.949 16.9437 68.923 17.632 68.9154 17.6393L68.8694 17.6686C68.7852 17.7199 66.6797 18.9647 66.6797 22.8601C66.6797 27.9491 68.4483 30.424 68.9919 31.061L69.704 31.9031H60.6005V31.8958ZM35.5948 63.074C27.7317 63.074 19.1489 59.8449 17.5028 59.2005C17.4492 59.1785 17.3879 59.1712 17.3267 59.1712H17.2271C15.6805 59.1712 14.4249 57.9704 14.4249 56.4913V37.5779C14.4249 36.1281 15.6346 34.9419 17.1352 34.8906C17.4645 34.6782 19.1872 33.4994 21.3769 30.6217C23.6738 27.6049 25.228 26.0892 25.5802 25.7524C25.764 25.4595 26.6904 23.8486 26.9737 21.6519C27.4714 17.7565 29.24 15.6843 31.8279 15.9552C34.4234 16.2335 35.6024 16.9437 35.8015 17.0755C36.0925 17.2439 38.4659 18.7889 38.4659 23.0651C38.4659 27.1363 37.3787 29.6479 36.5518 30.9659H43.389C47.2478 30.9659 50.3869 33.9753 50.3869 37.6731C50.3869 39.1888 49.8433 40.6605 48.8557 41.8467C49.1696 42.6156 49.3227 43.421 49.3227 44.2484C49.3227 45.7715 48.7714 47.2506 47.7761 48.4368C47.9599 49.0445 48.0594 49.6742 48.0594 50.304C48.0594 52.0247 47.3856 53.6502 46.1453 54.895C46.2525 55.8982 46.1223 56.9306 45.7625 57.8752L45.5634 58.3951C44.591 60.9505 42.1257 62.6639 39.2775 62.7665C38.933 62.8324 38.5578 62.8909 38.175 62.9349C37.3634 63.0301 36.4906 63.074 35.5948 63.074ZM31.3991 16.9657C28.9337 16.9657 28.2293 20.2973 28.0379 21.7837C27.724 24.2367 26.6828 25.994 26.476 26.3235C26.4378 26.3821 26.3995 26.4261 26.3535 26.47C26.1851 26.6311 24.6002 28.1248 22.2421 31.2295C19.9987 34.1803 18.2148 35.4398 17.7171 35.7546C17.6559 35.7912 17.4415 35.923 17.2271 35.923C16.2701 35.923 15.4968 36.6626 15.4968 37.5779V56.4766C15.4968 57.3919 16.2701 58.1315 17.2271 58.1315H17.3267C17.5257 58.1315 17.7248 58.1681 17.9085 58.2413C19.5164 58.8783 27.9307 62.0416 35.5871 62.0416C36.4447 62.0416 37.2792 62.0049 38.0601 61.9244C38.42 61.8878 38.7799 61.8292 39.0938 61.7706C39.132 61.7633 39.1627 61.756 39.201 61.756C41.628 61.6754 43.7259 60.2256 44.5528 58.0582L44.7518 57.5384C45.0734 56.7036 45.1806 55.7883 45.0581 54.9023C45.0275 54.6754 45.104 54.4557 45.2725 54.2946C46.375 53.2255 46.9798 51.8123 46.9798 50.3186C46.9798 49.7401 46.888 49.1617 46.7042 48.6052C46.62 48.3636 46.6812 48.1 46.8497 47.9096C47.7531 46.8845 48.2508 45.5884 48.2508 44.2558C48.2508 43.5089 48.0977 42.7767 47.7991 42.0884C47.6842 41.8321 47.7302 41.5465 47.9216 41.3342C48.8174 40.3091 49.315 39.0204 49.315 37.6877C49.315 34.5611 46.6583 32.0129 43.389 32.0129H36.0006C35.7096 32.0129 35.4493 31.8592 35.3115 31.6175C35.1813 31.3759 35.1967 31.083 35.3651 30.856C36.1231 29.8089 37.394 27.4146 37.394 23.0871C37.394 19.2502 35.3192 18.0201 35.2349 17.9688L35.189 17.9395C35.1813 17.9322 34.163 17.2513 31.7053 16.995C31.6058 16.973 31.4986 16.9657 31.3991 16.9657Z" fill="#76215D"/>
<path d="M4.27234 52.8228C4.27234 53.9065 5.19111 54.7779 6.31659 54.7779C7.44208 54.7779 8.36851 53.8992 8.36851 52.8228C8.36851 51.7391 7.44974 50.8678 6.31659 50.8678C5.18345 50.8678 4.27234 51.7464 4.27234 52.8228Z" fill="#FFBB00"/>
<path d="M6.31644 55.2977C4.89235 55.2977 3.72858 54.1848 3.72858 52.8228C3.72858 51.4609 4.88469 50.3479 6.31644 50.3479C7.74052 50.3479 8.90429 51.4609 8.90429 52.8228C8.90429 54.1921 7.74818 55.2977 6.31644 55.2977ZM6.31644 51.3803C5.48189 51.3803 4.80813 52.032 4.80813 52.8228C4.80813 53.621 5.48189 54.2653 6.31644 54.2653C7.15098 54.2653 7.82474 53.621 7.82474 52.8228C7.8324 52.032 7.15098 51.3803 6.31644 51.3803Z" fill="#76215D"/>
</svg>
