<svg width="20" height="23" viewBox="0 0 20 23" fill="none" xmlns="http://www.w3.org/2000/svg">
<path d="M17.7315 15.0523C18.667 16.3444 19.6007 18.0658 18.7708 19.4282C18.604 19.7019 18.4251 19.9757 18.234 20.2494C16.9993 22.0555 15.7693 22.9585 14.5441 22.9585C14.0751 22.9585 13.4051 22.8111 12.5341 22.5162C11.7109 22.2214 10.9883 22.0739 10.3661 22.0739C9.78224 22.0739 9.10266 22.226 8.32735 22.53C7.55205 22.8433 6.92032 23 6.43216 23C4.97727 23 3.53673 21.8067 2.11055 19.4201C0.703518 17.015 0 14.6975 0 12.4675C0 10.3666 0.540799 8.64343 1.6224 7.29808C2.704 5.97115 4.06317 5.30769 5.69993 5.30769C6.38909 5.30769 7.23618 5.44591 8.24121 5.72236C9.23666 5.9988 9.8971 6.13702 10.2225 6.13702C10.6533 6.13702 11.3376 5.98037 12.2757 5.66707C13.252 5.35377 14.0799 5.19712 14.7595 5.19712C15.8985 5.19712 16.9179 5.49659 17.8177 6.09555C18.7513 6.71781 18.5475 8.018 17.8411 8.88975C17.7806 8.96446 17.7249 9.03746 17.6741 9.10877C17.0519 9.97496 16.7408 10.9287 16.7408 11.97C16.7408 13.1126 17.0711 14.14 17.7315 15.0523ZM14.6016 0.580529C14.6016 1.14263 14.4628 1.76923 14.1852 2.46034C13.8981 3.15144 13.453 3.78726 12.85 4.36779C12.3331 4.86538 11.8162 5.19712 11.2994 5.36298C10.5221 5.58545 9.80396 4.88489 9.99199 4.09857C10.1727 3.34267 10.4841 2.65837 10.9261 2.04567C11.6128 1.08967 12.7585 0.419552 14.3631 0.0353055C14.4497 0.01457 14.5343 0.0646465 14.5513 0.152043C14.5525 0.158046 14.5536 0.163895 14.5548 0.169592C14.5727 0.259473 14.5865 0.350994 14.5944 0.442308C14.5992 0.497596 14.6016 0.54367 14.6016 0.580529Z" fill="#1D1D1D"/>
</svg>
