<svg width="21" height="19" viewBox="0 0 21 19" fill="none" xmlns="http://www.w3.org/2000/svg">
<path d="M0.916626 3.75L7.54158 7.50379C9.98438 8.88762 11.0155 8.88762 13.4583 7.50379L20.0833 3.75" stroke="#575D6D" stroke-width="1.5" stroke-linecap="round" stroke-linejoin="round"/>
<path d="M0.931983 10.9145C0.994274 13.8518 1.0259 15.3209 2.10977 16.4086C3.19365 17.4973 4.70207 17.5347 7.71986 17.6104C9.57902 17.6583 11.4209 17.6583 13.2801 17.6104C16.2979 17.5347 17.8063 17.4973 18.8902 16.4086C19.9741 15.3209 20.0057 13.8518 20.0689 10.9145C20.0881 9.96958 20.0881 9.03042 20.0689 8.0855C20.0057 5.14821 19.9741 3.67908 18.8902 2.59137C17.8063 1.50271 16.2979 1.46533 13.2801 1.38962C11.427 1.34286 9.57298 1.34286 7.71986 1.38962C4.70207 1.46533 3.19365 1.50271 2.10977 2.59137C1.0259 3.67908 0.994274 5.14821 0.931024 8.0855C0.91085 9.02839 0.911808 9.97161 0.931983 10.9145Z" stroke="#575D6D" stroke-width="1.5" stroke-linecap="round" stroke-linejoin="round"/>
</svg>
