<svg width="22" height="22" viewBox="0 0 22 22" fill="none" xmlns="http://www.w3.org/2000/svg">
<g clip-path="url(#clip0_2_99)">
<path d="M7.66388 1.15179C5.46574 1.88257 3.57007 3.26962 2.2553 5.1092C0.940541 6.94878 0.275992 9.14393 0.359267 11.3722C0.442542 13.6005 1.26925 15.7445 2.71797 17.4892C4.16668 19.2339 6.16104 20.4874 8.4081 21.0657C10.2298 21.5161 12.1385 21.5359 13.97 21.1233C15.6291 20.7662 17.163 20.0022 18.4215 18.9063C19.7314 17.7308 20.6821 16.2354 21.1715 14.5809C21.7035 12.7817 21.7982 10.8895 21.4483 9.0498H11.2183V13.1166H17.1428C17.0244 13.7652 16.7706 14.3843 16.3968 14.9367C16.0229 15.4892 15.5365 15.9637 14.9669 16.3318C14.2434 16.7904 13.4279 17.099 12.5726 17.2377C11.7149 17.3906 10.8351 17.3906 9.97732 17.2377C9.10796 17.0655 8.28555 16.7216 7.56247 16.228C6.40086 15.44 5.52864 14.3205 5.07029 13.0293C4.60419 11.7139 4.60419 10.2878 5.07029 8.97239C5.39655 8.05035 5.93591 7.21083 6.6481 6.51651C7.46312 5.70735 8.49495 5.12896 9.6304 4.84479C10.7658 4.56063 11.961 4.58167 13.0848 4.90561C13.9627 5.16387 14.7655 5.61509 15.4292 6.22332C16.0972 5.58643 16.7641 4.94789 17.4298 4.3077C17.7736 3.96345 18.1483 3.63567 18.4869 3.28318C17.4738 2.37969 16.2846 1.67666 14.9875 1.21438C12.6254 0.392442 10.0409 0.370353 7.66388 1.15179Z" fill="white"/>
<path d="M7.6639 1.15179C10.0407 0.369822 12.6252 0.391329 14.9875 1.21273C16.2848 1.67815 17.4735 2.38457 18.4851 3.29142C18.1414 3.6439 17.7787 3.97333 17.4281 4.31593C16.7612 4.95393 16.0949 5.58972 15.4292 6.22332C14.7655 5.61509 13.9627 5.16387 13.0848 4.90561C11.9614 4.58053 10.7663 4.55827 9.63052 4.84128C8.49477 5.12428 7.46231 5.70161 6.6464 6.50992C5.9342 7.20425 5.39485 8.04376 5.06858 8.9658L1.50562 6.32215C2.78094 3.89849 4.98909 2.04457 7.6639 1.15179Z" fill="#E33629"/>
<path d="M0.560288 8.94109C0.751793 8.03153 1.06973 7.1507 1.5056 6.32215L5.06857 8.97239C4.60247 10.2878 4.60247 11.7139 5.06857 13.0293C3.88149 13.9078 2.69383 14.7906 1.5056 15.6779C0.414453 13.5964 0.0816723 11.2248 0.560288 8.94109Z" fill="#F8BD00"/>
<path d="M11.2183 9.04816H21.4483C21.7982 10.8879 21.7036 12.78 21.1716 14.5792C20.6821 16.2337 19.7314 17.7291 18.4216 18.9046C17.2717 18.0448 16.1167 17.1916 14.9669 16.3318C15.537 15.9633 16.0235 15.4883 16.3974 14.9352C16.7713 14.3822 17.0249 13.7625 17.1428 13.1133H11.2183C11.2166 11.7593 11.2183 10.4037 11.2183 9.04816Z" fill="#587DBD"/>
<path d="M1.50391 15.6779C2.69214 14.7994 3.87979 13.9165 5.06688 13.0293C5.52614 14.321 6.3996 15.4405 7.5625 16.228C8.28783 16.7193 9.11201 17.0604 9.9825 17.2295C10.8403 17.3823 11.7201 17.3823 12.5778 17.2295C13.4331 17.0907 14.2486 16.7822 14.972 16.3236C16.1219 17.1834 17.2769 18.0366 18.4267 18.8964C17.1684 19.9929 15.6345 20.7574 13.9752 21.1151C12.1437 21.5277 10.235 21.5079 8.41328 21.0574C6.97246 20.6887 5.62663 20.0388 4.46016 19.1484C3.22551 18.209 2.21711 17.0252 1.50391 15.6779Z" fill="#319F43"/>
</g>
<defs>
<clipPath id="clip0_2_99">
<rect y="0.458344" width="22" height="21.0833" rx="10.5417" fill="white"/>
</clipPath>
</defs>
</svg>
