<svg width="17" height="19" viewBox="0 0 17 19" fill="none" xmlns="http://www.w3.org/2000/svg">
<path d="M10.6796 12.5625H10.6875M6.3125 12.5625H6.32037M1.7345 15.4894C1.93138 16.9506 3.1415 18.096 4.615 18.1634C5.854 18.2202 7.11312 18.25 8.5 18.25C9.88688 18.25 11.146 18.2202 12.385 18.1625C13.8585 18.096 15.0686 16.9506 15.2655 15.4894C15.3941 14.5356 15.5 13.5582 15.5 12.5625C15.5 11.5667 15.3941 10.5894 15.2655 9.63562C15.0686 8.17437 13.8585 7.029 12.385 6.96162C11.0909 6.90248 9.7955 6.8736 8.5 6.875C7.11312 6.875 5.854 6.90475 4.615 6.9625C3.1415 7.029 1.93138 8.17437 1.7345 9.63562C1.605 10.5894 1.5 11.5667 1.5 12.5625C1.5 13.5582 1.60588 14.5356 1.7345 15.4894Z" stroke="#575D6D" stroke-width="1.5" stroke-linecap="round" stroke-linejoin="round"/>
<path d="M4.5625 6.875V4.6875C4.5625 3.64321 4.97734 2.64169 5.71577 1.90327C6.45419 1.16484 7.45571 0.75 8.5 0.75C9.54429 0.75 10.5458 1.16484 11.2842 1.90327C12.0227 2.64169 12.4375 3.64321 12.4375 4.6875V6.875" stroke="#575D6D" stroke-width="1.5" stroke-linecap="round" stroke-linejoin="round"/>
</svg>
