<svg width="19" height="19" viewBox="0 0 19 19" fill="none" xmlns="http://www.w3.org/2000/svg">
<g clip-path="url(#clip0_228_285)">
<path d="M0.405425 9.3863C0.404979 10.9827 0.825354 12.5414 1.62469 13.9153L0.328979 18.6095L5.17042 17.3499C6.5095 18.0732 8.00984 18.4522 9.53448 18.4523H9.53849C14.5716 18.4523 18.6687 14.3885 18.6709 9.39344C18.6718 6.973 17.7227 4.69698 15.9983 2.98462C14.2742 1.27241 11.9812 0.328966 9.53812 0.327862C4.50438 0.327862 0.407577 4.39151 0.405499 9.3863" fill="url(#paint0_linear_228_285)"/>
<path d="M0.0794141 9.38335C0.0788945 11.0372 0.514336 12.6516 1.34217 14.0747L0 18.9372L5.01504 17.6324C6.39684 18.38 7.95261 18.7741 9.5357 18.7747H9.53978C14.7535 18.7747 18.9978 14.5647 19 9.39086C19.0009 6.88345 18.0176 4.52561 16.2316 2.75191C14.4454 0.978426 12.0704 0.00103101 9.53978 0C4.32517 0 0.0814922 4.20946 0.0794141 9.38335ZM3.06605 13.8296L2.8788 13.5347C2.09163 12.2928 1.67616 10.8576 1.67675 9.38394C1.67838 5.08353 5.20555 1.58481 9.54275 1.58481C11.6431 1.58569 13.6171 2.39812 15.1017 3.87217C16.5863 5.34636 17.4033 7.30602 17.4027 9.39027C17.4008 13.6907 13.8736 17.1898 9.53978 17.1898H9.53666C8.12554 17.1891 6.74159 16.8131 5.53464 16.1025L5.24741 15.9335L2.27139 16.7077L3.06605 13.8296Z" fill="url(#paint1_linear_228_285)"/>
<path d="M7.17533 5.46051C6.99824 5.06998 6.81188 5.0621 6.64348 5.05525C6.50558 5.04936 6.34794 5.0498 6.19044 5.0498C6.0328 5.0498 5.77667 5.10864 5.56018 5.3432C5.34346 5.57797 4.73279 6.14532 4.73279 7.29924C4.73279 8.45316 5.57985 9.56841 5.69793 9.72505C5.81616 9.8814 7.33319 12.3252 9.7358 13.2653C11.7326 14.0466 12.1389 13.8912 12.5723 13.852C13.0057 13.813 13.9709 13.2848 14.1678 12.7371C14.3648 12.1895 14.3648 11.7201 14.3057 11.622C14.2467 11.5243 14.089 11.4656 13.8526 11.3484C13.6163 11.2311 12.4541 10.6636 12.2374 10.5854C12.0207 10.5071 11.8631 10.4681 11.7055 10.703C11.5479 10.9374 11.0952 11.4656 10.9572 11.622C10.8194 11.7788 10.6814 11.7983 10.4451 11.681C10.2086 11.5633 9.44731 11.316 8.54414 10.517C7.84144 9.89532 7.36703 9.12758 7.22914 8.89273C7.09124 8.65825 7.21437 8.53115 7.33289 8.41427C7.4391 8.30918 7.56935 8.14039 7.68766 8.00349C7.80552 7.86651 7.84485 7.76879 7.92367 7.61237C8.00257 7.4558 7.96308 7.31883 7.90408 7.20151C7.84485 7.0842 7.38551 5.92424 7.17533 5.46051Z" fill="white"/>
</g>
<defs>
<linearGradient id="paint0_linear_228_285" x1="917.424" y1="1828.49" x2="917.424" y2="0.327862" gradientUnits="userSpaceOnUse">
<stop stop-color="#1FAF38"/>
<stop offset="1" stop-color="#60D669"/>
</linearGradient>
<linearGradient id="paint1_linear_228_285" x1="950" y1="1893.72" x2="950" y2="0" gradientUnits="userSpaceOnUse">
<stop stop-color="#F9F9F9"/>
<stop offset="1" stop-color="white"/>
</linearGradient>
<clipPath id="clip0_228_285">
<rect width="19" height="19" fill="white"/>
</clipPath>
</defs>
</svg>
